<svg xmlns="http://www.w3.org/2000/svg" xmlns:xlink="http://www.w3.org/1999/xlink" width="500" zoomAndPan="magnify" viewBox="0 0 375 374.999991" height="500" preserveAspectRatio="xMidYMid meet" version="1.0"><defs><clipPath id="793538cf64"><path d="M 80.152344 71.925781 L 294.652344 71.925781 L 294.652344 285.675781 L 80.152344 285.675781 Z M 80.152344 71.925781 " clip-rule="nonzero"/></clipPath></defs><g clip-path="url(#793538cf64)"><path fill="#008ddf" d="M 204.496094 142.089844 L 176.589844 122.953125 L 229.4375 122.953125 L 209.207031 198.449219 C 203.910156 218.21875 186.734375 234.507812 163.492188 234.507812 L 93.855469 234.507812 L 98.984375 215.371094 L 163.492188 215.371094 C 176.878906 215.371094 187.34375 206.105469 190.722656 193.496094 Z M 185.136719 91.0625 L 190.261719 71.925781 L 294.8125 71.925781 L 259.585938 203.402344 C 244.894531 258.230469 210.765625 285.535156 154.945312 285.535156 L 80.183594 285.535156 L 85.3125 266.398438 L 154.945312 266.398438 C 192.316406 266.398438 226.296875 253.699219 241.101562 198.449219 L 269.875 91.0625 Z M 185.136719 91.0625 " fill-opacity="1" fill-rule="evenodd"/></g></svg>